<svg xmlns="http://www.w3.org/2000/svg" viewBox="0 0 11.36 11.36"><defs><style>.cls-1{fill:#8b9eb0;}</style></defs><g id="Layer_2" data-name="Layer 2"><g id="Layer_1-2" data-name="Layer 1"><path class="cls-1" d="M4.39,0H2.32A2.32,2.32,0,0,0,0,2.32V4.39a.77.77,0,0,0,.77.77H4.39a.76.76,0,0,0,.77-.77V.77A.77.77,0,0,0,4.39,0Zm.26,4.39a.26.26,0,0,1-.26.26H.77a.26.26,0,0,1-.25-.26V2.32A1.81,1.81,0,0,1,2.32.52H4.39a.26.26,0,0,1,.26.25ZM7,5.16h3.62a.77.77,0,0,0,.77-.77V2.32A2.32,2.32,0,0,0,9,0H7A.77.77,0,0,0,6.2.77V4.39A.76.76,0,0,0,7,5.16ZM6.71.77A.26.26,0,0,1,7,.52H9a1.81,1.81,0,0,1,1.8,1.8V4.39a.26.26,0,0,1-.25.26H7a.26.26,0,0,1-.26-.26ZM4.39,6.2H.77A.77.77,0,0,0,0,7V9a2.32,2.32,0,0,0,2.32,2.32H4.39a.77.77,0,0,0,.77-.77V7A.76.76,0,0,0,4.39,6.2Zm.26,4.39a.26.26,0,0,1-.26.25H2.32A1.81,1.81,0,0,1,.52,9V7a.26.26,0,0,1,.25-.26H4.39A.26.26,0,0,1,4.65,7ZM6.2,7v3.62a.77.77,0,0,0,.77.77H9A2.32,2.32,0,0,0,11.36,9V7a.77.77,0,0,0-.77-.77H7A.76.76,0,0,0,6.2,7Zm4.39-.26a.26.26,0,0,1,.25.26V9A1.81,1.81,0,0,1,9,10.84H7a.26.26,0,0,1-.26-.25V7A.26.26,0,0,1,7,6.71Z"/></g></g></svg>