<svg xmlns="http://www.w3.org/2000/svg" viewBox="0 0 362.98 364.7"><defs><style>.cls-1{fill:#fff;}</style></defs><g id="Layer_2" data-name="Layer 2"><g id="Layer_1-2" data-name="Layer 1"><path class="cls-1" d="M337.8,364.67a34.28,34.28,0,0,1-8.72-1.9q-72-23.06-144-46.12a12.47,12.47,0,0,0-7.11,0Q105.19,339.83,32.52,363.3c-7.76,2.51-14.87,1.24-21.94-2.05L3.7,354.36c-4.32-8.3-5.18-16.64-.85-25.32q63.3-127,126.48-254,16.1-32.35,32.08-64.77L167.77,4a65.7,65.7,0,0,1,7.9-3.16c11.15-2.9,22.24,2.38,27.64,13.2q26.25,52.56,52.37,105.17Q307.79,223.83,359.92,328.5C368.86,346.45,357.19,365.6,337.8,364.67Z"/></g></g></svg>