<svg xmlns="http://www.w3.org/2000/svg" viewBox="0 0 11.3 11.3"><defs><style>.cls-1{fill:#8b9eb0;}</style></defs><g id="Layer_2" data-name="Layer 2"><g id="Layer_1-2" data-name="Layer 1"><path class="cls-1" d="M5.65,0A5.65,5.65,0,1,0,11.3,5.65,5.65,5.65,0,0,0,5.65,0Zm0,10.82a5.18,5.18,0,1,1,5.17-5.17A5.18,5.18,0,0,1,5.65,10.82Zm.47-5.17a.47.47,0,1,1-.47-.47A.47.47,0,0,1,6.12,5.65Zm2.35,0A.47.47,0,1,1,8,5.18.47.47,0,0,1,8.47,5.65Zm-4.7,0a.48.48,0,0,1-.48.47.47.47,0,1,1,0-.94A.48.48,0,0,1,3.77,5.65Z"/></g></g></svg>