<svg xmlns="http://www.w3.org/2000/svg" viewBox="0 0 88.08 115.88"><defs><style>.cls-1{fill:#ea4f55;}.cls-2{fill:#e72e51;}.cls-3{fill:#fffeff;}.cls-4{fill:#457ec0;}.cls-5{fill:#3570b7;}.cls-6{fill:#689fd6;}.cls-7{fill:#3470b7;}</style></defs><g id="Layer_2" data-name="Layer 2"><g id="Layer_1-2" data-name="Layer 1"><path class="cls-1" d="M46.64,114.49a3.39,3.39,0,0,1-5.64-.26q-4.53-6.14-9-12.3C24,91,15.85,80.11,8,69.08A43.95,43.95,0,0,1,37.16.51,8.34,8.34,0,0,0,39.87,0h7.47l4.54.76c.12.47.57.46.9.55,7.16,2,12.85,6.25,17.54,11.9a44.26,44.26,0,0,1,6.29,10.24,49.14,49.14,0,0,1,4.17,17.29,51.08,51.08,0,0,1-.6,11.57,49.09,49.09,0,0,1-6.29,17.37c-3,4.92-6.07,9.76-9.09,14.65q-9,14.58-17.94,29.18C46.69,113.8,46.27,114.06,46.64,114.49ZM43.91,73.9A29.95,29.95,0,1,0,14,43.85,29.92,29.92,0,0,0,43.91,73.9Z"/><path class="cls-2" d="M46.64,114.49c-.37-.43,0-.69.22-1q9-14.6,17.94-29.18c3-4.89,6.12-9.73,9.09-14.65a49.09,49.09,0,0,0,6.29-17.37,51.08,51.08,0,0,0,.6-11.57,49.14,49.14,0,0,0-4.17-17.29,44.26,44.26,0,0,0-6.29-10.24C65.63,7.56,59.94,3.34,52.78,1.31c-.33-.09-.78-.08-.9-.55C67.67,4,78.88,13,84.77,27.93c5.72,14.49,4,28.59-5,41.34C69.07,84.36,58,99.15,47,114.07A4.83,4.83,0,0,1,46.64,114.49Z"/><path class="cls-3" d="M44.85,21.06a10,10,0,0,0-9.65,4.67,10,10,0,0,0-.47,10.72c2,3.75,6.48,6.08,10.12,5.4C50,41.71,54.35,37,54.4,31.58S50.13,21.28,44.85,21.06ZM56.42,63.15a21.43,21.43,0,0,0,6.5-6.29,1.44,1.44,0,0,0,.26-.84,6.89,6.89,0,0,0-6.07-6.94,62.22,62.22,0,0,0-8-.15c-5.91,0-11.83-.09-17.74,0a6.91,6.91,0,0,0-6.61,5.78,3.06,3.06,0,0,0,.52,2.66,22.59,22.59,0,0,0,6.42,5.94,11.59,11.59,0,0,0,2.45,1.38C41.87,68.07,49.29,67.67,56.42,63.15Z"/><path class="cls-4" d="M49.15,48.93a62.22,62.22,0,0,1,8,.15H51.23a2.62,2.62,0,0,0,.41.35,6.86,6.86,0,0,1,4.52,6.93c0,1.88,0,3.76,0,5.64,0,.39-.15.84.25,1.15-7.13,4.52-14.55,4.92-22.23,1.56a11.59,11.59,0,0,1-2.45-1.38c0-2.52,0-5,0-7.55,0-3.16,2.92-6.86,6.65-6.71,3.19.13,6.39,0,9.58,0C48.36,49.1,48.79,49.23,49.15,48.93Z"/><path class="cls-4" d="M44.85,41.85c-3.64.68-8.17-1.65-10.12-5.4a10,10,0,0,1,.47-10.72,10,10,0,0,1,9.65-4.67c.08.64.65,1,.91,1.53,2.08,4.46,1.77,9.12,1.25,13.8A12.48,12.48,0,0,1,44.85,41.85Z"/><path class="cls-5" d="M44.85,41.85A12.48,12.48,0,0,0,47,36.39c.52-4.68.83-9.34-1.25-13.8-.26-.55-.83-.89-.91-1.53,5.28.22,9.61,5,9.55,10.52S50,41.71,44.85,41.85Z"/><path class="cls-6" d="M49.15,48.93c-.36.3-.79.17-1.2.17-3.19,0-6.39.1-9.58,0-3.73-.15-6.69,3.55-6.65,6.71,0,2.51,0,5,0,7.55a22.59,22.59,0,0,1-6.42-5.94,3.06,3.06,0,0,1-.52-2.66A6.91,6.91,0,0,1,31.41,49C37.32,48.84,43.24,48.93,49.15,48.93Z"/><path class="cls-7" d="M56.42,63.15c-.4-.31-.25-.76-.25-1.15,0-1.88,0-3.76,0-5.64a6.86,6.86,0,0,0-4.52-6.93,2.62,2.62,0,0,1-.41-.35h5.88A6.89,6.89,0,0,1,63.18,56a1.44,1.44,0,0,1-.26.84A21.43,21.43,0,0,1,56.42,63.15Z"/></g></g></svg>