<svg xmlns="http://www.w3.org/2000/svg" xmlns:xlink="http://www.w3.org/1999/xlink" width="1080" zoomAndPan="magnify" viewBox="0 0 810 809.999993" height="1080" preserveAspectRatio="xMidYMid meet" version="1.0"><defs><clipPath id="b8cce32037"><path d="M 30 31.070312 L 774 31.070312 L 774 778.820312 L 30 778.820312 Z M 30 31.070312 " clip-rule="nonzero"/></clipPath></defs><path fill="#797979" d="M 511.488281 347.171875 L 780 347.171875 L 780 84.773438 Z M 511.488281 347.171875 " fill-opacity="1" fill-rule="nonzero"/><g clip-path="url(#b8cce32037)"><path fill="#797979" d="M 665.539062 453.933594 C 642.40625 577.664062 534.015625 671.828125 403.640625 671.828125 C 256.511719 671.828125 136.78125 552.117188 136.78125 405.007812 C 136.78125 257.863281 256.511719 138.132812 403.640625 138.132812 C 504.222656 138.132812 590.824219 194.683594 636.394531 277.03125 L 754.164062 277.03125 C 701.722656 133.957031 564.625 31.394531 403.613281 31.394531 C 197.628906 31.394531 30 198.964844 30 405.007812 C 30 611.023438 197.628906 778.605469 403.613281 778.605469 C 592.984375 778.605469 749.546875 636.8125 773.644531 453.949219 Z M 665.539062 453.933594 " fill-opacity="1" fill-rule="nonzero"/></g></svg>