<svg xmlns="http://www.w3.org/2000/svg" viewBox="0 0 341.43 347.14"><defs><style>.cls-1{fill:#fff;}</style></defs><g id="Layer_2" data-name="Layer 2"><g id="Layer_1-2" data-name="Layer 1"><path class="cls-1" d="M59.84,198.05c6.36,7.45,12,14.4,18,21,19.56,21.55,42.19,38.75,70.05,48.25A148.53,148.53,0,0,0,230,271.62c4.33-1,6.48-3.74,5.71-7.24-.74-3.34-3.58-4.72-7.89-4.27-11.26,1.15-22.52,2.88-33.81,3.09-32,.57-60.31-10.19-85.26-30-19.15-15.23-34.28-34-47.87-54.19a7.28,7.28,0,0,1-1.05-3.81c0-22.58-.91-45.21.17-67.74,2.06-42.82,20.21-76.48,59.74-96.1C164-10.62,219.11.15,251.13,36.52,265,52.29,273,70.94,276.07,91.56a170.87,170.87,0,0,1,1.67,25.68c-.05,27.32-.8,54.63-.64,82,.08,15.1,2.3,30,8,44.22a51.58,51.58,0,0,0,15,20.58c20.62,17.26,34.6,38.7,40,65.3a71.43,71.43,0,0,1,1.26,11.12c.2,4.84-2.92,7.45-7.65,6.56-11.74-2.23-23.41-4.81-35.19-6.78-27.49-4.61-55-9.14-82.56-13.31-15.42-2.33-31-2.18-46.6-1.93-38.75.63-72-12.77-97.28-43a52.84,52.84,0,0,1-12.36-35.6C60,230.5,59.84,214.67,59.84,198.05Zm186.69-69.86c-.56-4.82-1.05-13.06-2.54-21.11C239.77,84.25,230.05,64.21,212,49c-16.58-14-35.56-20.32-57.3-15.61-17.86,3.87-31.27,14.52-41.59,29.1C94.39,89,87.61,118.41,92.92,150.41c3.69,22.18,12.06,42.36,27.66,59,11.55,12.33,25.49,20.37,42.62,21.66,22.85,1.73,41.36-7.36,56.24-24.12C238.47,185.51,245.8,159.72,246.53,128.19Z"/><path class="cls-1" d="M149.83,333.85c-11.94,3.32-23.12,6.12-34.85,3.56a13.08,13.08,0,0,1-4.19-1.48C94.67,325.66,77.51,326.47,60,331c-11.67,3-23.3,6.22-35.06,8.84a43.75,43.75,0,0,1-13.33.5C4.39,339.67-.17,334.75,0,327.6.34,314.26,2.79,301.38,10.48,290,21,274.5,35.29,262.91,50.87,251.67c.4,2.75.65,5,1.07,7.23,3.66,19.48,15.15,33.86,30.31,45.64C101.8,319.73,124,329,148.4,333.06A10.58,10.58,0,0,1,149.83,333.85Z"/><path class="cls-1" d="M102.71,130.22a103.36,103.36,0,0,1,5.49-32.34A7.31,7.31,0,0,1,111.66,94q61.82-27.78,117.91,10.39a5.74,5.74,0,0,1,2.41,3c7.23,36.71.19,70-26.71,96.84-22.56,22.52-55.7,20.13-77.18-3.87-12.93-14.44-20-31.65-23.24-50.53C103.74,143.39,103.4,136.78,102.71,130.22Z"/><path class="cls-1" d="M116.83,78.68C125.59,60.44,146,43,170.07,43.77s45.76,19.14,55.29,43.61C190.31,68.48,154.29,65.62,116.83,78.68Z"/></g></g></svg>