<svg xmlns="http://www.w3.org/2000/svg" viewBox="0 0 252.16 327.57"><defs><style>.cls-1{fill:#fff;}</style></defs><g id="Layer_2" data-name="Layer 2"><g id="Layer_1-2" data-name="Layer 1"><path class="cls-1" d="M126.08,327.38c-30.94,0-61.89.23-92.83-.1-16.81-.17-32.09-15.64-33-32.47C0,290.07.05,285.32.05,280.57c0-47.88.05-95.76,0-143.63,0-15.86,6.34-27.86,20.68-34.82A37.53,37.53,0,0,1,35,98.74c11.08-.5,22.2-.23,33.31-.17,7.21,0,12.6,5.34,12.5,12.1s-5.49,11.88-12.75,11.9c-10.23,0-20.47,0-30.7,0-8.36,0-13.2,4.87-13.2,13.26q0,77.27,0,154.51c0,8.24,4.77,13,13,13q88.91,0,177.81,0c8.2,0,13-4.81,13-13q0-77.27,0-154.51c0-8.44-4.79-13.23-13.2-13.25-10.23,0-20.46,0-30.7,0-7.23,0-12.64-5.12-12.74-11.91s5.21-12.06,12.49-12.09c11.23-.06,22.46-.11,33.69.05,18,.25,33.44,15.17,34.39,33.07.23,4.37.23,8.75.23,13.12q0,72.19,0,144.38c0,15.85-6.52,27.63-20.68,34.92-5.7,2.94-11.88,3.47-18.18,3.46q-43.61-.07-87.22,0Z"/><path class="cls-1" d="M114.3,41.76c-1.67,1.57-2.67,2.45-3.61,3.39-9.44,9.44-18.86,18.93-28.34,28.35-5.53,5.5-13,5.79-18,.83s-4.62-12.39.94-18q25.79-25.87,51.61-51.7c6.19-6.18,12.87-6.22,19-.07q25.85,25.82,51.62,51.7c5.55,5.58,6,13,1.07,18s-12.54,4.7-18.25-1q-14.05-14-28-28.12A33,33,0,0,1,139.85,42l-1.2.54v4.22q0,74.62,0,149.25a27.32,27.32,0,0,1-.52,5.93,11.94,11.94,0,0,1-23.32-.22,30.31,30.31,0,0,1-.47-5.95q0-74.25,0-148.49Z"/></g></g></svg>