<svg xmlns="http://www.w3.org/2000/svg" viewBox="0 0 11.36 11.36"><defs><style>.cls-1{fill:#8b9eb0;}</style></defs><g id="Layer_2" data-name="Layer 2"><g id="Layer_1-2" data-name="Layer 1"><path class="cls-1" d="M11.07,4.19a1.18,1.18,0,0,0-.89-.4H9.91a4.26,4.26,0,0,0-8.46,0H1.18a1.18,1.18,0,0,0-.89.4A1.22,1.22,0,0,0,0,5.13l.53,4a2.61,2.61,0,0,0,2.58,2.26H8.24A2.61,2.61,0,0,0,10.82,9.1l.53-4a1.19,1.19,0,0,0-.29-.94ZM5.68.47A3.8,3.8,0,0,1,9.44,3.79H1.92A3.79,3.79,0,0,1,5.68.47Zm5.2,4.59-.53,4a2.13,2.13,0,0,1-2.11,1.85H3.12A2.13,2.13,0,0,1,1,9l-.53-4A.69.69,0,0,1,.65,4.5a.73.73,0,0,1,.53-.24h9a.73.73,0,0,1,.53.24.68.68,0,0,1,.17.56Z"/></g></g></svg>