<?xml version="1.0" encoding="UTF-8" standalone="no"?>
<svg
   viewBox="0 0 512 512"
   version="1.1"
   id="svg1"
   sodipodi:docname="web.svg"
   inkscape:version="1.3 (0e150ed6c4, 2023-07-21)"
   xmlns:inkscape="http://www.inkscape.org/namespaces/inkscape"
   xmlns:sodipodi="http://sodipodi.sourceforge.net/DTD/sodipodi-0.dtd"
   xmlns="http://www.w3.org/2000/svg"
   xmlns:svg="http://www.w3.org/2000/svg">
  <sodipodi:namedview
     id="namedview1"
     pagecolor="#ffffff"
     bordercolor="#666666"
     borderopacity="1.0"
     inkscape:showpageshadow="2"
     inkscape:pageopacity="0.0"
     inkscape:pagecheckerboard="0"
     inkscape:deskcolor="#d1d1d1"
     inkscape:zoom="1.5878906"
     inkscape:cx="255.68512"
     inkscape:cy="256"
     inkscape:window-width="1920"
     inkscape:window-height="1009"
     inkscape:window-x="-8"
     inkscape:window-y="-8"
     inkscape:window-maximized="1"
     inkscape:current-layer="Outline" />
  <defs
     id="defs1">
    <style
       id="style1">.cls-1{fill:#e0e0e0;}</style>
  </defs>
  <g
     id="Layer_2"
     data-name="Layer 2">
    <g
       id="Outline">
      <path
         class="cls-1"
         d="M256,0C114.62,0,0,114.62,0,256S114.62,512,256,512,512,397.38,512,256,397.32.15,256,0ZM440.47,149.33H371.75a419.66,419.66,0,0,0-60.18-99.07A214,214,0,0,1,440.47,149.33ZM352,256a218.23,218.23,0,0,1-10.15,64H170.15A218.23,218.23,0,0,1,160,256a218.23,218.23,0,0,1,10.15-64h171.7A218.23,218.23,0,0,1,352,256ZM187.26,362.67H324.74A418.36,418.36,0,0,1,256,460.54,417.57,417.57,0,0,1,187.26,362.67Zm0-213.34A418.36,418.36,0,0,1,256,51.46a417.57,417.57,0,0,1,68.74,97.87Zm13.27-99.07a419.83,419.83,0,0,0-60.28,99.07H71.53A214,214,0,0,1,200.53,50.26ZM52.5,192h73.37a256.57,256.57,0,0,0-8.54,64,256.57,256.57,0,0,0,8.54,64H52.5A213.21,213.21,0,0,1,52.5,192Zm19,170.67h68.72a419.83,419.83,0,0,0,60.28,99.07A214,214,0,0,1,71.53,362.67Zm240,99.07a419.66,419.66,0,0,0,60.18-99.07h68.72a214,214,0,0,1-128.9,99.07ZM459.5,320H386.13a256.57,256.57,0,0,0,8.54-64,256.57,256.57,0,0,0-8.54-64h73.33a213.21,213.21,0,0,1,0,128Z"
         id="path1"
         style="fill:#666666" />
    </g>
  </g>
</svg>
