<svg xmlns="http://www.w3.org/2000/svg" viewBox="0 0 11.31 11.36"><defs><style>.cls-1{fill:#8b9eb0;fill-rule:evenodd;}</style></defs><g id="Layer_2" data-name="Layer 2"><g id="Layer_1-2" data-name="Layer 1"><g id="WA_Logo" data-name="WA Logo"><path class="cls-1" d="M9.66,1.65A5.63,5.63,0,0,0,.8,8.44L0,11.36l3-.78a5.63,5.63,0,0,0,2.69.68h0a5.63,5.63,0,0,0,4-9.61Zm-4,8.66h0a4.66,4.66,0,0,1-2.38-.65l-.17-.1L1.35,10,1.82,8.3l-.11-.18a4.68,4.68,0,1,1,4,2.19Zm2.56-3.5c-.14-.07-.83-.41-1-.46s-.22-.07-.31.07-.37.46-.45.55-.16.11-.3,0a3.75,3.75,0,0,1-1.14-.7,4.12,4.12,0,0,1-.78-1c-.08-.14,0-.21.06-.28s.14-.17.21-.25a1.14,1.14,0,0,0,.15-.23.27.27,0,0,0,0-.25c0-.07-.31-.76-.43-1S4,3,4,3H3.68a.49.49,0,0,0-.37.18,1.57,1.57,0,0,0-.49,1.17,2.72,2.72,0,0,0,.57,1.45A6.21,6.21,0,0,0,5.79,8a7.71,7.71,0,0,0,.81.29,1.82,1.82,0,0,0,.88.06,1.45,1.45,0,0,0,.95-.67A1.1,1.1,0,0,0,8.51,7C8.48,6.91,8.38,6.88,8.24,6.81Z"/></g></g></g></svg>